<?xml version="1.0" encoding="utf-8"?>
<!-- Generator: Adobe Illustrator 25.4.1, SVG Export Plug-In . SVG Version: 6.00 Build 0)  -->
<svg version="1.1" id="Layer_1" xmlns="http://www.w3.org/2000/svg" xmlns:xlink="http://www.w3.org/1999/xlink" x="0px" y="0px"
	 viewBox="0 0 24 24" style="enable-background:new 0 0 24 24;" xml:space="preserve">
<style type="text/css">
	.st0{fill:#2B2B2B;}
	.st1{fill:#2B2B2B;stroke:#2B2B2B;stroke-width:0.25;stroke-miterlimit:10;}
</style>
<path class="st0" d="M12,22.8C6.1,22.8,1.2,17.9,1.2,12S6.1,1.2,12,1.2S22.7,6.1,22.7,12c0,0.4-0.3,0.8-0.8,0.8s-0.8-0.3-0.8-0.8
	c0-5.1-4.2-9.2-9.3-9.2S2.7,6.9,2.7,12s4.2,9.2,9.2,9.2c0.4,0,0.8,0.3,0.8,0.8S12.4,22.8,12,22.8z"/>
<path class="st0" d="M9,21.8H8c-0.4,0-0.8-0.3-0.8-0.8s0.3-0.7,0.7-0.8C6.4,14.9,6.4,9.1,8,3.8C7.6,3.7,7.2,3.4,7.2,3S7.6,2.2,8,2.2
	h1c0.2,0,0.5,0.1,0.6,0.3C9.7,2.8,9.8,3,9.7,3.2c-1.9,5.6-1.9,11.9,0,17.5c0.1,0.2,0,0.5-0.1,0.7C9.5,21.6,9.2,21.8,9,21.8z"/>
<path class="st0" d="M16.5,12.8c-0.4,0-0.8-0.3-0.8-0.8c0-3-0.5-5.9-1.4-8.8c-0.1-0.4,0.1-0.8,0.5-1c0.4-0.1,0.8,0.1,0.9,0.5
	c1,3,1.5,6.1,1.5,9.2C17.2,12.4,16.9,12.8,16.5,12.8z"/>
<path class="st0" d="M12,17.2c-2.8,0-5.6-0.4-8.2-1.2c0,0.4-0.3,0.7-0.8,0.7S2.2,16.4,2.2,16v-1c0-0.2,0.1-0.5,0.3-0.6
	s0.4-0.2,0.7-0.1c2.8,0.9,5.8,1.4,8.8,1.4c0.4,0,0.8,0.3,0.8,0.8S12.4,17.2,12,17.2z"/>
<path class="st0" d="M21,9.7c-0.1,0-0.2,0-0.2,0c-5.7-1.9-11.9-1.9-17.5,0c-0.4,0.1-0.8-0.1-1-0.5c-0.1-0.4,0.1-0.8,0.5-1
	c6-2,12.5-2,18.5,0c0.4,0.1,0.6,0.6,0.5,1C21.6,9.5,21.3,9.7,21,9.7z"/>
<path class="st1" d="M20.5,19.2c-0.1,0-0.2,0-0.3-0.1c-0.1-0.1-0.1-0.4,0-0.5l1.6-1.6l-1.6-1.6c-0.1-0.1-0.1-0.4,0-0.5
	c0.1-0.1,0.4-0.1,0.5,0l1.9,1.9c0.1,0.1,0.1,0.2,0.1,0.3c0,0.1,0,0.2-0.1,0.3l-1.9,1.9C20.7,19.2,20.6,19.2,20.5,19.2z"/>
<path class="st1" d="M22.4,17.3h-4.3c-0.2,0-0.4-0.2-0.4-0.4c0-0.2,0.2-0.4,0.4-0.4h4.3c0.2,0,0.4,0.2,0.4,0.4
	C22.8,17.2,22.6,17.3,22.4,17.3z"/>
<path class="st1" d="M16.2,22.3c-0.1,0-0.2,0-0.3-0.1L14,20.2c-0.1-0.1-0.1-0.2-0.1-0.3s0-0.2,0.1-0.3l1.9-1.9
	c0.1-0.1,0.4-0.1,0.5,0c0.1,0.1,0.1,0.4,0,0.5L14.8,20l1.6,1.6c0.1,0.1,0.1,0.4,0,0.5C16.4,22.2,16.3,22.3,16.2,22.3z"/>
<path class="st1" d="M18.7,20.3h-4.4c-0.2,0-0.4-0.2-0.4-0.4s0.2-0.4,0.4-0.4h4.4c0.2,0,0.4,0.2,0.4,0.4S18.9,20.3,18.7,20.3z"/>
</svg>
